<svg width="49" height="44" viewBox="0 0 49 44" fill="none" xmlns="http://www.w3.org/2000/svg">
<rect width="49" height="44" rx="22" fill="#42FACF"/>
<path fill-rule="evenodd" clip-rule="evenodd" d="M29.8327 18C29.8327 19.4145 29.2708 20.771 28.2706 21.7712C27.2704 22.7714 25.9138 23.3333 24.4993 23.3333C23.0849 23.3333 21.7283 22.7714 20.7281 21.7712C19.7279 20.771 19.166 19.4145 19.166 18C19.166 16.5855 19.7279 15.229 20.7281 14.2288C21.7283 13.2286 23.0849 12.6667 24.4993 12.6667C25.9138 12.6667 27.2704 13.2286 28.2706 14.2288C29.2708 15.229 29.8327 16.5855 29.8327 18ZM27.166 18C27.166 18.7072 26.8851 19.3855 26.385 19.8856C25.8849 20.3857 25.2066 20.6667 24.4993 20.6667C23.7921 20.6667 23.1138 20.3857 22.6137 19.8856C22.1136 19.3855 21.8327 18.7072 21.8327 18C21.8327 17.2928 22.1136 16.6145 22.6137 16.1144C23.1138 15.6143 23.7921 15.3333 24.4993 15.3333C25.2066 15.3333 25.8849 15.6143 26.385 16.1144C26.8851 16.6145 27.166 17.2928 27.166 18Z" fill="white"/>
<path fill-rule="evenodd" clip-rule="evenodd" d="M24.4997 7.33334C16.3997 7.33334 9.83301 13.9 9.83301 22C9.83301 30.1 16.3997 36.6667 24.4997 36.6667C32.5997 36.6667 39.1663 30.1 39.1663 22C39.1663 13.9 32.5997 7.33334 24.4997 7.33334ZM12.4997 22C12.4997 24.7867 13.4503 27.352 15.0437 29.3893C16.1629 27.9202 17.6065 26.7295 19.2619 25.9103C20.9172 25.0911 22.7394 24.6655 24.5863 24.6667C26.4095 24.6645 28.2091 25.0788 29.8478 25.8778C31.4866 26.6769 32.9212 27.8396 34.0423 29.2773C35.1976 27.7621 35.9755 25.9936 36.3115 24.1181C36.6476 22.2426 36.5323 20.314 35.975 18.492C35.4178 16.6699 34.4346 15.0067 33.107 13.6401C31.7793 12.2734 30.1453 11.2425 28.3402 10.6327C26.535 10.0229 24.6106 9.8517 22.7262 10.1333C20.8417 10.4149 19.0514 11.1412 17.5034 12.2521C15.9553 13.363 14.6941 14.8265 13.824 16.5216C12.9539 18.2167 12.4999 20.0946 12.4997 22ZM24.4997 34C21.7449 34.0045 19.0732 33.0568 16.937 31.3173C17.7968 30.0862 18.9413 29.0809 20.2731 28.3873C21.605 27.6936 23.0847 27.332 24.5863 27.3333C26.0692 27.332 27.531 27.6846 28.8503 28.3618C30.1696 29.0389 31.3082 30.0211 32.1717 31.2267C30.019 33.0227 27.3032 34.0044 24.4997 34Z" fill="white"/>
</svg>
