<svg width="49" height="44" viewBox="0 0 49 44" fill="none" xmlns="http://www.w3.org/2000/svg">
<rect width="49" height="44" rx="22" fill="#42FACF"/>
<path d="M37.7142 13.6942C37.5863 13.5068 37.4211 13.3548 37.2316 13.2501C37.0421 13.1455 36.8334 13.091 36.6219 13.0909H16.9742L15.9825 9.11873C15.9023 8.7971 15.7296 8.51358 15.4908 8.31154C15.252 8.1095 14.9603 8.00007 14.6603 8H12.3726C12.0086 8 11.6594 8.16091 11.402 8.44733C11.1446 8.73375 11 9.12221 11 9.52727C11 9.93233 11.1446 10.3208 11.402 10.6072C11.6594 10.8936 12.0086 11.0545 12.3726 11.0545H13.6171L17.5404 26.7715C17.7294 27.5215 18.1333 28.1824 18.6907 28.6536C19.2482 29.1248 19.9287 29.3805 20.6288 29.3818H31.9322C32.6322 29.3805 33.3127 29.1248 33.8702 28.6536C34.4277 28.1824 34.8316 27.5215 35.0205 26.7715L37.9522 15.0267C38.0076 14.7992 38.015 14.5606 37.9737 14.3294C37.9324 14.0982 37.8436 13.8808 37.7142 13.6942ZM32.3668 25.9544C32.3404 26.0605 32.2837 26.1542 32.2053 26.2214C32.127 26.2886 32.0311 26.3258 31.9322 26.3273H20.6265C20.5266 26.3272 20.4294 26.2906 20.3499 26.2233C20.2704 26.156 20.2129 26.0615 20.1861 25.9544L17.7372 16.1455H34.8158L32.3668 25.9544ZM22.4383 33.4545C22.4383 33.958 22.3042 34.4501 22.0528 34.8687C21.8014 35.2873 21.4441 35.6136 21.0261 35.8062C20.6081 35.9989 20.1481 36.0493 19.7044 35.9511C19.2606 35.8529 18.853 35.6104 18.533 35.2545C18.2131 34.8985 17.9952 34.4449 17.907 33.9511C17.8187 33.4574 17.864 32.9456 18.0371 32.4804C18.2103 32.0153 18.5035 31.6178 18.8797 31.3381C19.2559 31.0584 19.6982 30.9091 20.1507 30.9091C20.7574 30.9091 21.3393 31.1773 21.7683 31.6546C22.1973 32.132 22.4383 32.7794 22.4383 33.4545ZM34.3342 33.4545C34.3342 33.958 34.2 34.4501 33.9487 34.8687C33.6973 35.2873 33.34 35.6136 32.922 35.8062C32.504 35.9989 32.044 36.0493 31.6002 35.9511C31.1565 35.8529 30.7488 35.6104 30.4289 35.2545C30.109 34.8985 29.8911 34.4449 29.8028 33.9511C29.7146 33.4574 29.7599 32.9456 29.933 32.4804C30.1062 32.0153 30.3994 31.6178 30.7756 31.3381C31.1518 31.0584 31.5941 30.9091 32.0465 30.9091C32.6533 30.9091 33.2351 31.1773 33.6642 31.6546C34.0932 32.132 34.3342 32.7794 34.3342 33.4545Z" fill="white"/>
</svg>
