<svg width="49" height="44" viewBox="0 0 49 44" fill="none" xmlns="http://www.w3.org/2000/svg">
<rect width="49" height="44" rx="22" fill="#42FACF"/>
<path d="M34.4997 19.5C34.4997 19.1685 34.368 18.8505 34.1336 18.6161C33.8992 18.3817 33.5813 18.25 33.2497 18.25C32.9182 18.25 32.6003 18.3817 32.3659 18.6161C32.1314 18.8505 31.9997 19.1685 31.9997 19.5H34.4997ZM16.9997 19.5C16.9997 19.1685 16.868 18.8505 16.6336 18.6161C16.3992 18.3817 16.0813 18.25 15.7497 18.25C15.4182 18.25 15.1003 18.3817 14.8659 18.6161C14.6314 18.8505 14.4997 19.1685 14.4997 19.5H16.9997ZM34.866 22.8837C35.1017 23.1114 35.4175 23.2374 35.7452 23.2346C36.073 23.2317 36.3865 23.1003 36.6183 22.8685C36.85 22.6368 36.9815 22.3232 36.9843 21.9955C36.9872 21.6678 36.8612 21.352 36.6335 21.1163L34.866 22.8837ZM24.4997 10.75L25.3835 9.86625C25.1491 9.63191 24.8312 9.50027 24.4997 9.50027C24.1683 9.50027 23.8504 9.63191 23.616 9.86625L24.4997 10.75ZM12.366 21.1163C12.2466 21.2316 12.1514 21.3695 12.0859 21.522C12.0203 21.6745 11.9859 21.8385 11.9844 22.0045C11.983 22.1705 12.0146 22.3351 12.0775 22.4887C12.1403 22.6423 12.2331 22.7819 12.3505 22.8992C12.4679 23.0166 12.6074 23.1094 12.761 23.1723C12.9147 23.2351 13.0793 23.2668 13.2452 23.2653C13.4112 23.2639 13.5752 23.2294 13.7277 23.1639C13.8802 23.0984 14.0182 23.0031 14.1335 22.8837L12.366 21.1163ZM18.2497 34.5H30.7497V32H18.2497V34.5ZM34.4997 30.75V19.5H31.9997V30.75H34.4997ZM16.9997 30.75V19.5H14.4997V30.75H16.9997ZM36.6335 21.1163L25.3835 9.86625L23.616 11.6337L34.866 22.8837L36.6335 21.1163ZM23.616 9.86625L12.366 21.1163L14.1335 22.8837L25.3835 11.6337L23.616 9.86625ZM30.7497 34.5C31.7443 34.5 32.6981 34.1049 33.4014 33.4017C34.1046 32.6984 34.4997 31.7446 34.4997 30.75H31.9997C31.9997 31.0815 31.868 31.3995 31.6336 31.6339C31.3992 31.8683 31.0813 32 30.7497 32V34.5ZM18.2497 32C17.9182 32 17.6003 31.8683 17.3659 31.6339C17.1314 31.3995 16.9997 31.0815 16.9997 30.75H14.4997C14.4997 31.7446 14.8948 32.6984 15.5981 33.4017C16.3013 34.1049 17.2552 34.5 18.2497 34.5V32Z" fill="white"/>
</svg>
