<svg width="56" height="57" viewBox="0 0 56 57" fill="none" xmlns="http://www.w3.org/2000/svg">
<path d="M18.1671 5.57178H37.4688C44.8218 5.57178 50.7961 11.5461 50.7961 18.8991V38.2007C50.7961 41.7353 49.3919 45.1252 46.8926 47.6245C44.3932 50.1239 41.0034 51.528 37.4688 51.528H18.1671C10.8142 51.528 4.83984 45.5537 4.83984 38.2007V18.8991C4.83984 15.3645 6.24397 11.9746 8.74332 9.47525C11.2427 6.9759 14.6325 5.57178 18.1671 5.57178ZM17.7076 10.1674C15.5137 10.1674 13.4096 11.0389 11.8583 12.5902C10.307 14.1416 9.43547 16.2456 9.43547 18.4395V38.6603C9.43547 43.2329 13.1349 46.9324 17.7076 46.9324H37.9283C40.1222 46.9324 42.2263 46.0609 43.7776 44.5095C45.3289 42.9582 46.2004 40.8542 46.2004 38.6603V18.4395C46.2004 13.8669 42.501 10.1674 37.9283 10.1674H17.7076ZM39.8815 13.6141C40.6432 13.6141 41.3738 13.9167 41.9125 14.4554C42.4511 14.994 42.7537 15.7246 42.7537 16.4864C42.7537 17.2482 42.4511 17.9787 41.9125 18.5174C41.3738 19.056 40.6432 19.3586 39.8815 19.3586C39.1197 19.3586 38.3891 19.056 37.8505 18.5174C37.3118 17.9787 37.0092 17.2482 37.0092 16.4864C37.0092 15.7246 37.3118 14.994 37.8505 14.4554C38.3891 13.9167 39.1197 13.6141 39.8815 13.6141ZM27.818 17.0608C30.865 17.0608 33.7873 18.2713 35.9419 20.4259C38.0966 22.5805 39.307 25.5028 39.307 28.5499C39.307 31.597 38.0966 34.5193 35.9419 36.6739C33.7873 38.8285 30.865 40.0389 27.818 40.0389C24.7709 40.0389 21.8486 38.8285 19.694 36.6739C17.5393 34.5193 16.3289 31.597 16.3289 28.5499C16.3289 25.5028 17.5393 22.5805 19.694 20.4259C21.8486 18.2713 24.7709 17.0608 27.818 17.0608ZM27.818 21.6565C25.9897 21.6565 24.2363 22.3827 22.9436 23.6755C21.6508 24.9683 20.9245 26.7216 20.9245 28.5499C20.9245 30.3781 21.6508 32.1315 22.9436 33.4243C24.2363 34.7171 25.9897 35.4433 27.818 35.4433C29.6462 35.4433 31.3996 34.7171 32.6923 33.4243C33.9851 32.1315 34.7114 30.3781 34.7114 28.5499C34.7114 26.7216 33.9851 24.9683 32.6923 23.6755C31.3996 22.3827 29.6462 21.6565 27.818 21.6565Z" fill="#42FACF"/>
</svg>
