<svg width="31" height="30" viewBox="0 0 31 30" fill="none" xmlns="http://www.w3.org/2000/svg">
<path d="M15.4723 14.4163C14.659 14.4163 13.8791 14.0932 13.304 13.5182C12.729 12.9431 12.4059 12.1632 12.4059 11.35C12.4059 10.5367 12.729 9.75677 13.304 9.18171C13.8791 8.60666 14.659 8.2836 15.4723 8.2836C16.2855 8.2836 17.0655 8.60666 17.6405 9.18171C18.2156 9.75677 18.5386 10.5367 18.5386 11.35C18.5386 11.7526 18.4593 12.1514 18.3052 12.5234C18.1511 12.8954 17.9252 13.2335 17.6405 13.5182C17.3558 13.8029 17.0177 14.0288 16.6457 14.1829C16.2737 14.337 15.8749 14.4163 15.4723 14.4163ZM15.4723 2.76416C13.1952 2.76416 11.0113 3.66873 9.4012 5.27888C7.79105 6.88903 6.88647 9.07286 6.88647 11.35C6.88647 17.7893 15.4723 27.295 15.4723 27.295C15.4723 27.295 24.0581 17.7893 24.0581 11.35C24.0581 9.07286 23.1535 6.88903 21.5433 5.27888C19.9332 3.66873 17.7494 2.76416 15.4723 2.76416Z" fill="white"/>
</svg>
