<svg width="30" height="29" viewBox="0 0 30 29" fill="none" xmlns="http://www.w3.org/2000/svg">
<path d="M8.60287 13.0964C10.3102 16.4518 13.0609 19.1907 16.4164 20.9099L19.0248 18.3014C19.3449 17.9813 19.8192 17.8746 20.2342 18.0169C21.5621 18.4555 22.9967 18.6927 24.467 18.6927C25.1191 18.6927 25.6526 19.2262 25.6526 19.8783V24.0163C25.6526 24.6684 25.1191 25.2019 24.467 25.2019C13.3336 25.2019 4.31079 16.1791 4.31079 5.04576C4.31079 4.39365 4.84434 3.86011 5.49645 3.86011H9.64625C10.2984 3.86011 10.8319 4.39365 10.8319 5.04576C10.8319 6.52784 11.069 7.95062 11.5077 9.27856C11.6382 9.69354 11.5433 10.1559 11.2113 10.4879L8.60287 13.0964Z" fill="white"/>
</svg>
