<svg width="56" height="56" viewBox="0 0 56 56" fill="none" xmlns="http://www.w3.org/2000/svg">
<path d="M51.6007 14.1354C49.8314 14.9397 47.9242 15.4681 45.9481 15.7209C47.9702 14.5031 49.5327 12.5729 50.268 10.2521C48.3608 11.401 46.2468 12.2053 44.0179 12.6648C42.2027 10.6887 39.6521 9.53979 36.7569 9.53979C31.357 9.53979 26.9452 13.9516 26.9452 19.3974C26.9452 20.1787 27.0371 20.9369 27.198 21.6493C19.0178 21.2357 11.7337 17.3064 6.88532 11.3551C6.03513 12.8027 5.55259 14.5031 5.55259 16.2954C5.55259 19.7191 7.27595 22.7522 9.94141 24.4756C8.30997 24.4756 6.79341 24.016 5.46068 23.3267V23.3956C5.46068 28.175 8.86144 32.1732 13.3652 33.0694C11.9195 33.4668 10.4011 33.5218 8.93037 33.2302C9.55447 35.1891 10.7768 36.9031 12.4254 38.1313C14.074 39.3595 16.0661 40.0402 18.1216 40.0777C14.6374 42.8363 10.3183 44.3273 5.87428 44.3057C5.09303 44.3057 4.31177 44.2597 3.53052 44.1678C7.89636 46.9711 13.0894 48.6026 18.6501 48.6026C36.7569 48.6026 46.7064 33.5749 46.7064 20.5463C46.7064 20.1097 46.7064 19.6961 46.6834 19.2595C48.6136 17.8808 50.268 16.1345 51.6007 14.1354Z" fill="#42FACF"/>
</svg>
