<svg width="35" height="34" viewBox="0 0 35 34" fill="none" xmlns="http://www.w3.org/2000/svg">
<path d="M27.2718 7.34013C25.9971 6.05306 24.4791 5.03255 22.8061 4.33806C21.1332 3.64357 19.3387 3.289 17.5273 3.295C9.93745 3.295 3.75159 9.48086 3.75159 17.0707C3.75159 19.5033 4.39102 21.8665 5.58649 23.9516L3.64038 31.0966L10.9383 29.1783C12.9539 30.2765 15.2198 30.8603 17.5273 30.8603C25.1171 30.8603 31.303 24.6744 31.303 17.0846C31.303 13.4009 29.8712 9.93958 27.2718 7.34013ZM17.5273 28.525C15.47 28.525 13.4544 27.9689 11.6889 26.9264L11.2719 26.6762L6.93487 27.816L8.08864 23.5902L7.81062 23.1593C6.66735 21.3342 6.06041 19.2243 6.05912 17.0707C6.05912 10.7597 11.2024 5.61643 17.5134 5.61643C20.5716 5.61643 23.449 6.8119 25.6037 8.98043C26.6707 10.0423 27.5163 11.3054 28.0914 12.6966C28.6665 14.0877 28.9596 15.5793 28.9538 17.0846C28.9816 23.3956 23.8383 28.525 17.5273 28.525ZM23.8105 19.9621C23.4629 19.7953 21.767 18.9612 21.4612 18.8361C21.1415 18.7249 20.9191 18.6693 20.6828 19.0029C20.4465 19.3504 19.7931 20.1289 19.5985 20.3513C19.4039 20.5876 19.1954 20.6154 18.8479 20.4347C18.5003 20.2679 17.3883 19.8926 16.0816 18.7249C15.0529 17.8074 14.3718 16.6815 14.1633 16.334C13.9687 15.9864 14.1355 15.8057 14.3162 15.625C14.4691 15.4721 14.6637 15.2219 14.8305 15.0273C14.9973 14.8327 15.0668 14.6798 15.1781 14.4573C15.2893 14.221 15.2337 14.0264 15.1503 13.8596C15.0668 13.6928 14.3718 11.9969 14.0938 11.3019C13.8158 10.6346 13.5239 10.718 13.3153 10.7041H12.6481C12.4118 10.7041 12.0504 10.7875 11.7307 11.1351C11.4248 11.4826 10.5352 12.3166 10.5352 14.0125C10.5352 15.7084 11.7724 17.3487 11.9392 17.5711C12.106 17.8074 14.3718 21.2826 17.8192 22.77C18.6394 23.1315 19.2788 23.34 19.7792 23.4929C20.5994 23.757 21.35 23.7153 21.9477 23.6319C22.615 23.5346 23.9912 22.7978 24.2692 21.9916C24.5611 21.1853 24.5611 20.5042 24.4638 20.3513C24.3665 20.1984 24.158 20.1289 23.8105 19.9621Z" fill="white"/>
</svg>
